<svg xmlns="http://www.w3.org/2000/svg" width="24" height="24" fill="none"><path fill="#000" fill-rule="evenodd" d="M2 9.111c0-2.489 0-3.734.484-4.684a4.44 4.44 0 0 1 1.943-1.943C5.377 2 6.622 2 9.11 2h5.778c2.489 0 3.734 0 4.684.484a4.44 4.44 0 0 1 1.943 1.943C22 5.377 22 6.622 22 9.11v5.778c0 2.489 0 3.734-.484 4.684a4.44 4.44 0 0 1-1.943 1.943c-.95.484-2.195.484-4.684.484H9.11c-2.489 0-3.734 0-4.684-.484a4.44 4.44 0 0 1-1.943-1.943C2 18.623 2 17.378 2 14.89zm5.25-.395c-.902 0-1.525-.662-1.525-1.47 0-.827.591-1.521 1.51-1.521.92 0 1.46.694 1.477 1.52 0 .81-.653 1.471-1.444 1.471zm2.887 1.135c.035.79 0 8.424 0 8.424h2.617v-4.704c0-.252.069-.503.14-.683.194-.503.592-.937 1.334-.937.972 0 1.445.686 1.445 1.817v4.507h2.602v-4.83c0-2.906-1.225-3.791-2.993-3.791-1.425 0-2.268.816-2.632 1.39V9.851zm-4.228 8.424h2.596V9.851H5.909z" clip-rule="evenodd"/></svg>