<svg xmlns="http://www.w3.org/2000/svg" width="24" height="24" fill="none"><path fill="#000" fill-rule="evenodd" d="M2.799 5.017C2 6.407 2 8.27 2 12s0 5.593.799 6.983a6 6 0 0 0 2.218 2.218C6.407 22 8.27 22 12 22s5.593 0 6.983-.799a6 6 0 0 0 2.218-2.218C22 17.593 22 15.73 22 12s0-5.593-.799-6.983a6 6 0 0 0-2.218-2.218C17.593 2 15.73 2 12 2s-5.593 0-6.983.799a6 6 0 0 0-2.218 2.218M16.192 19.94c-.997.09-2.292.092-4.192.092s-3.195-.002-4.192-.092c-.97-.087-1.465-.246-1.812-.445a4.04 4.04 0 0 1-1.492-1.492c-.2-.347-.358-.842-.445-1.812-.09-.997-.092-2.292-.092-4.192s.002-3.195.092-4.192c.087-.97.246-1.465.445-1.812a4.04 4.04 0 0 1 1.492-1.492c.347-.2.842-.358 1.812-.445.997-.09 2.292-.092 4.192-.092s3.195.002 4.192.092c.97.087 1.465.246 1.811.445.621.357 1.136.872 1.493 1.492.199.347.358.842.445 1.812.09.997.092 2.292.092 4.192s-.002 3.195-.092 4.192c-.087.97-.246 1.465-.445 1.811a4.04 4.04 0 0 1-1.492 1.493c-.347.199-.842.358-1.812.445m-.324-13.155a1.344 1.344 0 1 1 2.689 0 1.344 1.344 0 0 1-2.688 0m-3.868 0a5.214 5.214 0 1 0 0 10.428 5.214 5.214 0 0 0 0-10.429M8.886 12a3.114 3.114 0 1 1 6.228 0 3.114 3.114 0 0 1-6.228 0" clip-rule="evenodd"/></svg>