<svg xmlns="http://www.w3.org/2000/svg" width="24" height="24" fill="none"><path fill="#000" fill-rule="evenodd" d="M3.727 6.564c0-.588.477-1.064 1.064-1.064h14.418c.588 0 1.064.476 1.064 1.064V6.8c0 .587-.476 1.064-1.064 1.064H4.791A1.064 1.064 0 0 1 3.727 6.8zm1.064 9.572c-.588 0-1.064.477-1.064 1.064v.236c0 .588.477 1.064 1.064 1.064h14.418c.588 0 1.064-.476 1.064-1.064V17.2c0-.587-.476-1.064-1.064-1.064z" clip-rule="evenodd"/><path fill="#000" d="M3.727 11.882c0-.588.477-1.064 1.064-1.064h14.418c.588 0 1.064.476 1.064 1.064v.236c0 .588-.476 1.064-1.064 1.064H4.791a1.064 1.064 0 0 1-1.064-1.064z"/></svg>